<svg width="21" height="21" viewBox="0 0 21 21" fill="none" xmlns="http://www.w3.org/2000/svg">
<path fill-rule="evenodd" clip-rule="evenodd" d="M8.94086 5.45309L7.59475 6.7992H7.59206C7.33818 7.04441 6.99814 7.18009 6.6452 7.17702C6.29225 7.17396 5.95464 7.03238 5.70506 6.7828C5.45548 6.53322 5.31391 6.19561 5.31084 5.84266C5.30777 5.48972 5.44346 5.14968 5.68866 4.8958L9.70544 0.881709C9.85688 0.73046 10.0622 0.645508 10.2762 0.645508C10.4902 0.645508 10.6955 0.73046 10.8469 0.881709L14.8826 4.90658C15.0112 5.03075 15.1137 5.17929 15.1842 5.34352C15.2548 5.50775 15.2919 5.68439 15.2935 5.86312C15.295 6.04186 15.261 6.21911 15.1933 6.38454C15.1256 6.54997 15.0257 6.70027 14.8993 6.82666C14.7729 6.95305 14.6226 7.053 14.4571 7.12069C14.2917 7.18837 14.1145 7.22243 13.9357 7.22087C13.757 7.21932 13.5804 7.18219 13.4161 7.11164C13.2519 7.04109 13.1034 6.93854 12.9792 6.80997L11.6331 5.46387V14.2055C11.6331 14.5625 11.4913 14.9049 11.2388 15.1573C10.9864 15.4098 10.644 15.5516 10.287 15.5516C9.92996 15.5516 9.58758 15.4098 9.33513 15.1573C9.08269 14.9049 8.94086 14.5625 8.94086 14.2055V5.45309ZM18.2571 6.69539C18.5096 6.44295 18.8519 6.30112 19.209 6.30112C19.566 6.30112 19.9084 6.44295 20.1608 6.69539C20.4133 6.94784 20.5551 7.29022 20.5551 7.64723V16.3054C20.5543 17.4855 20.0853 18.617 19.2508 19.4514C18.4164 20.2858 17.2849 20.7549 16.1048 20.7556H4.44755C3.26796 20.7542 2.13713 20.2848 1.30329 19.4505C0.469442 18.6161 0.000712312 17.485 0 16.3054V7.64723C0 7.29022 0.141825 6.94784 0.394269 6.69539C0.646713 6.44295 0.989098 6.30112 1.34611 6.30112C1.70312 6.30112 2.0455 6.44295 2.29795 6.69539C2.55039 6.94784 2.69222 7.29022 2.69222 7.64723V16.3054C2.69293 16.771 2.87801 17.2173 3.20696 17.5468C3.53592 17.8762 3.98198 18.062 4.44755 18.0634H16.1048C16.5709 18.0627 17.0176 17.8773 17.3472 17.5477C17.6767 17.2182 17.8621 16.7714 17.8628 16.3054V7.64723C17.8628 7.29022 18.0047 6.94784 18.2571 6.69539Z" fill="red"/>
</svg>
