<?xml version="1.0" encoding="UTF-8"?>
<svg xmlns="http://www.w3.org/2000/svg" xmlns:xlink="http://www.w3.org/1999/xlink" viewBox="0 0 64 64" width="64px" height="64px">
<g id="surface30344420">
<path style=" stroke:none;fill-rule:nonzero;fill:rgb(100%,100%,100%);fill-opacity:1;" d="M 32 0.28125 C 14.480469 0.28125 0.28125 14.480469 0.28125 32 C 0.28125 46.976562 10.664062 59.523438 24.625 62.847656 C 23.902344 62.675781 23.1875 62.484375 22.484375 62.265625 L 22.484375 54.996094 C 22.484375 54.996094 21.292969 55.394531 19.707031 55.394531 C 15.269531 55.394531 13.429688 51.433594 12.96875 49.445312 C 12.6875 48.234375 11.960938 47.085938 11.175781 46.386719 C 10.238281 45.550781 9.800781 45.546875 9.796875 45.261719 C 9.785156 44.664062 10.597656 44.6875 10.984375 44.6875 C 12.96875 44.6875 14.472656 46.796875 15.167969 47.886719 C 16.898438 50.582031 18.753906 51.03125 19.707031 51.03125 C 20.898438 51.03125 21.925781 50.855469 22.632812 50.511719 C 22.960938 48.207031 23.984375 46.15625 25.65625 44.6875 C 18.21875 43.199219 12.96875 38.933594 12.96875 32 C 12.96875 28.429688 14.402344 25.144531 16.789062 22.492188 C 16.546875 21.800781 16.140625 20.402344 16.140625 18.121094 C 16.140625 16.617188 16.246094 14.765625 16.933594 12.96875 C 16.933594 12.96875 21.457031 13 25.722656 17.039062 C 27.691406 16.46875 29.800781 16.140625 32 16.140625 C 34.199219 16.140625 36.308594 16.46875 38.277344 17.039062 C 42.542969 13 47.066406 12.96875 47.066406 12.96875 C 47.757812 14.765625 47.859375 16.617188 47.859375 18.121094 C 47.859375 20.582031 47.53125 22.015625 47.332031 22.632812 C 49.648438 25.257812 51.03125 28.492188 51.03125 32 C 51.03125 38.933594 45.78125 43.199219 38.34375 44.6875 C 40.332031 46.433594 41.515625 48.972656 41.515625 51.824219 L 41.515625 62.265625 C 40.8125 62.484375 40.097656 62.675781 39.375 62.847656 C 53.335938 59.523438 63.71875 46.976562 63.71875 32 C 63.71875 14.480469 49.519531 0.28125 32 0.28125 Z M 34.210938 63.632812 C 33.480469 63.6875 32.746094 63.71875 32 63.71875 C 32.746094 63.71875 33.480469 63.683594 34.210938 63.632812 Z M 39.058594 62.921875 C 37.640625 63.246094 36.183594 63.472656 34.699219 63.597656 C 36.183594 63.472656 37.640625 63.246094 39.058594 62.921875 Z M 32 63.71875 C 31.253906 63.71875 30.519531 63.6875 29.789062 63.632812 C 30.519531 63.683594 31.253906 63.71875 32 63.71875 Z M 29.300781 63.597656 C 27.816406 63.472656 26.359375 63.246094 24.941406 62.921875 C 26.359375 63.246094 27.816406 63.472656 29.300781 63.597656 Z M 29.300781 63.597656 "/>
</g>
</svg>
