<?xml version="1.0" encoding="UTF-8"?>
<svg xmlns="http://www.w3.org/2000/svg" xmlns:xlink="http://www.w3.org/1999/xlink" viewBox="0 0 64 64" width="64px" height="64px">
<g id="surface24783590">
<path style=" stroke:none;fill-rule:nonzero;fill:rgb(100%,100%,100%);fill-opacity:1;" d="M 18.871094 0.5 C 8.742188 0.5 0.5 8.746094 0.5 18.878906 L 0.5 45.125 C 0.5 55.257812 8.746094 63.5 18.878906 63.5 L 45.125 63.5 C 55.257812 63.5 63.5 55.253906 63.5 45.121094 L 63.5 18.871094 C 63.5 8.742188 55.253906 0.5 45.121094 0.5 Z M 50.898438 10.578125 C 52.292969 10.578125 53.421875 11.707031 53.421875 13.101562 C 53.421875 14.492188 52.292969 15.621094 50.898438 15.621094 C 49.507812 15.621094 48.378906 14.492188 48.378906 13.101562 C 48.378906 11.707031 49.507812 10.578125 50.898438 10.578125 Z M 32 15.621094 C 41.035156 15.621094 48.378906 22.964844 48.378906 32 C 48.378906 41.035156 41.03125 48.378906 32 48.378906 C 22.964844 48.378906 15.621094 41.03125 15.621094 32 C 15.621094 22.96875 22.964844 15.621094 32 15.621094 Z M 32 20.660156 C 25.738281 20.660156 20.660156 25.738281 20.660156 32 C 20.660156 38.261719 25.738281 43.339844 32 43.339844 C 38.261719 43.339844 43.339844 38.261719 43.339844 32 C 43.339844 25.738281 38.261719 20.660156 32 20.660156 Z M 32 20.660156 "/>
</g>
</svg>
