<?xml version="1.0" encoding="UTF-8"?>
<svg xmlns="http://www.w3.org/2000/svg" xmlns:xlink="http://www.w3.org/1999/xlink" viewBox="0 0 64 64" width="64px" height="64px">
<g id="surface24674370">
<path style=" stroke:none;fill-rule:nonzero;fill:rgb(100%,100%,100%);fill-opacity:1;" d="M 52.480469 0 L 11.519531 0 C 5.863281 0 1.28125 4.585938 1.28125 10.238281 L 1.28125 51.199219 C 1.28125 56.855469 5.863281 61.441406 11.519531 61.441406 L 33.28125 61.441406 L 33.28125 39.679688 L 25.601562 39.679688 L 25.601562 30.71875 L 33.28125 30.71875 L 33.28125 24.320312 C 33.28125 15.359375 38.398438 10.238281 46.078125 10.238281 C 50.089844 10.238281 52.480469 11.519531 52.480469 11.519531 L 52.480469 19.199219 L 47.359375 19.199219 C 43.699219 19.199219 42.238281 21.878906 42.238281 24.320312 L 42.238281 30.71875 L 51.199219 30.71875 L 49.921875 39.679688 L 42.238281 39.679688 L 42.238281 61.441406 L 52.480469 61.441406 C 58.136719 61.441406 62.71875 56.855469 62.71875 51.199219 L 62.71875 10.238281 C 62.71875 4.585938 58.136719 0 52.480469 0 Z M 52.480469 0 "/>
</g>
</svg>
