<?xml version="1.0" encoding="UTF-8"?>
<svg xmlns="http://www.w3.org/2000/svg" xmlns:xlink="http://www.w3.org/1999/xlink" viewBox="0 0 256 256" width="256px" height="256px">
<g id="surface24602801">
<path style=" stroke:none;fill-rule:nonzero;fill:rgb(100%,100%,100%);fill-opacity:1;" d="M 211.199219 -2 L 44.800781 -2 C 21.828125 -2 3.199219 16.625 3.199219 39.601562 L 3.199219 206 C 3.199219 228.972656 21.828125 247.601562 44.800781 247.601562 L 211.199219 247.601562 C 234.171875 247.601562 252.800781 228.972656 252.800781 206 L 252.800781 39.601562 C 252.800781 16.625 234.171875 -2 211.199219 -2 Z M 181.679688 180 C 175.339844 160.21875 159.542969 144.914062 138.648438 142.835938 L 138.648438 180 L 135.425781 180 C 78.578125 180 46.152344 140.957031 44.800781 76 L 73.28125 76 C 74.214844 123.679688 95.207031 143.875 111.839844 148.039062 L 111.839844 76 L 138.65625 76 L 138.65625 117.121094 C 155.078125 115.355469 172.328125 96.613281 178.148438 76 L 204.964844 76 C 200.5 101.402344 181.789062 120.136719 168.480469 127.84375 C 181.785156 134.089844 203.09375 150.433594 211.199219 180 Z M 181.679688 180 "/>
</g>
</svg>
